<?xml version="1.0" standalone="no"?>
<!DOCTYPE svg PUBLIC "-//W3C//DTD SVG 20010904//EN"
 "http://www.w3.org/TR/2001/REC-SVG-20010904/DTD/svg10.dtd">
<svg version="1.0" xmlns="http://www.w3.org/2000/svg"
 width="500.000000pt" height="500.000000pt" viewBox="0 0 500.000000 500.000000"
 preserveAspectRatio="xMidYMid meet">

<g transform="translate(0.000000,500.000000) scale(0.100000,-0.100000)"
fill="#000000" stroke="none">
<path d="M2330 4200 c-641 -71 -1183 -482 -1419 -1075 -118 -297 -147 -588
-91 -916 89 -524 433 -990 909 -1229 200 -100 388 -154 631 -181 230 -26 536
20 765 114 597 244 986 750 1071 1391 33 245 -9 566 -106 813 -149 377 -413
681 -765 877 -243 135 -492 202 -785 211 -74 2 -169 0 -210 -5z m340 -35 c41
-3 126 -17 189 -31 648 -145 1138 -643 1277 -1298 35 -166 44 -428 19 -576
-67 -404 -249 -742 -539 -1002 -245 -220 -524 -354 -861 -413 -121 -21 -399
-21 -520 0 -373 65 -670 220 -932 486 -282 287 -436 624 -474 1039 -45 485
144 987 500 1328 294 282 662 447 1051 472 104 6 145 6 290 -5z"/>
<path d="M3490 3187 c0 -7 5 -19 10 -27 8 -12 10 -12 10 5 1 18 1 19 11 3 14
-26 59 -24 59 2 0 12 -7 20 -17 21 -10 0 -30 2 -45 4 -17 2 -28 -1 -28 -8z"/>
<path d="M3171 3100 c-35 -5 -68 -13 -73 -18 -10 -10 25 -319 38 -331 14 -14
247 23 285 45 46 27 70 65 76 118 8 63 -19 129 -65 164 -31 24 -45 27 -116 29
-45 1 -110 -3 -145 -7z m224 -34 c90 -38 100 -186 17 -241 -50 -32 -249 -65
-257 -43 -10 28 -34 273 -27 280 19 18 224 22 267 4z"/>
<path d="M3026 3072 c-2 -4 2 -59 10 -122 7 -63 15 -127 17 -142 2 -16 0 -28
-4 -28 -5 0 -77 59 -161 130 -83 72 -160 130 -170 130 -22 0 -23 -13 -3 -190
14 -122 25 -163 40 -148 3 3 -2 69 -10 148 -9 78 -14 145 -11 147 3 3 47 -30
98 -74 226 -193 230 -196 243 -181 10 10 10 32 0 108 -7 52 -16 125 -19 163
-7 61 -17 80 -30 59z"/>
<path d="M2465 3009 c-9 -13 -99 -235 -121 -295 -14 -40 -17 -42 -54 -40 -36
1 -40 4 -67 56 l-29 55 38 36 c58 55 50 117 -20 146 -32 13 -52 13 -164 2 -71
-7 -133 -16 -140 -20 -16 -10 22 -331 39 -336 10 -4 11 13 7 70 l-7 76 34 5
c19 4 68 7 109 9 74 2 74 2 95 -31 11 -18 29 -47 40 -65 22 -34 45 -44 73 -31
9 4 24 8 32 8 8 1 25 22 37 47 l21 46 89 12 c145 18 154 17 186 -29 27 -39 58
-48 38 -12 -25 45 -207 296 -218 299 -6 2 -14 -1 -18 -8z m84 -116 c55 -79 59
-88 42 -95 -24 -8 -191 -23 -191 -16 0 4 30 80 65 166 8 17 16 32 19 32 2 0
32 -39 65 -87z m-355 53 c57 -24 61 -93 7 -121 -33 -16 -250 -45 -257 -34 -10
16 -17 139 -8 140 15 2 208 26 217 28 4 0 23 -5 41 -13z"/>
<path d="M1531 2904 c-138 -69 -143 -248 -9 -313 95 -45 268 -16 313 53 23 34
35 33 35 -4 0 -21 5 -30 16 -30 12 0 14 7 10 28 -3 15 -8 55 -11 90 -5 43 -11
62 -21 62 -28 0 -299 -32 -303 -36 -3 -3 0 -8 5 -13 5 -5 68 -1 144 9 87 11
137 14 141 7 24 -36 -60 -137 -130 -157 -61 -17 -133 -12 -181 13 -62 32 -85
67 -85 132 0 84 49 137 145 156 67 14 124 1 170 -38 35 -29 48 -26 28 6 -39
63 -175 81 -267 35z"/>
<path d="M3482 2541 c-16 -21 -44 -64 -62 -95 -19 -31 -37 -55 -41 -54 -4 2
-44 38 -89 82 -58 56 -85 75 -93 67 -7 -7 16 -35 80 -95 l91 -86 8 -67 c6 -42
14 -68 23 -71 11 -4 13 8 7 67 l-7 72 60 94 c34 51 64 101 67 109 12 30 -16
16 -44 -23z"/>
<path d="M2980 2521 l-135 -16 3 -35 c6 -82 31 -303 35 -307 7 -6 311 29 321
38 22 19 -10 20 -146 6 -79 -9 -146 -13 -150 -9 -4 4 -10 35 -14 70 -5 49 -4
62 7 62 35 0 262 30 267 35 17 17 -25 20 -118 9 -176 -21 -166 -24 -173 43 -3
32 -4 59 -1 62 2 3 68 12 146 20 92 11 143 20 146 29 5 15 -10 14 -188 -7z"/>
<path d="M2563 2424 c4 -27 12 -99 18 -161 7 -62 15 -117 19 -123 5 -8 33 -8
101 0 135 15 159 20 159 30 0 13 -47 13 -148 -2 -45 -6 -85 -9 -88 -5 -3 3
-13 72 -22 153 -12 105 -21 149 -31 152 -11 4 -13 -5 -8 -44z"/>
<path d="M2280 2413 c-1 -70 34 -305 46 -310 23 -9 237 22 242 34 3 10 -11 11
-60 5 -35 -4 -88 -7 -118 -7 l-55 0 -17 140 c-9 77 -17 146 -17 153 -2 25 -21
11 -21 -15z"/>
<path d="M2029 2373 c-38 -87 -119 -295 -119 -304 0 -23 19 -5 33 30 9 22 20
41 24 44 4 3 61 11 126 18 112 12 118 11 132 -7 35 -49 43 -56 54 -53 12 4
-196 310 -216 317 -8 2 -22 -16 -34 -45z m105 -88 c54 -79 55 -80 32 -86 -30
-8 -186 -23 -186 -17 0 7 60 160 71 180 13 24 14 24 83 -77z"/>
<path d="M1822 2353 c-11 -21 -41 -93 -67 -160 -27 -68 -51 -123 -55 -123 -4
0 -50 63 -104 140 -89 128 -116 158 -116 130 0 -9 107 -168 187 -277 25 -34
47 -42 56 -20 2 6 34 85 71 175 36 90 66 165 66 168 0 2 -4 4 -10 4 -5 0 -18
-17 -28 -37z"/>
</g>
</svg>
