<?xml version="1.0" standalone="no"?>
<!DOCTYPE svg PUBLIC "-//W3C//DTD SVG 20010904//EN"
 "http://www.w3.org/TR/2001/REC-SVG-20010904/DTD/svg10.dtd">
<svg version="1.0" xmlns="http://www.w3.org/2000/svg"
 width="256.000000pt" height="256.000000pt" viewBox="0 0 256.000000 256.000000"
 preserveAspectRatio="xMidYMid meet">

<g transform="translate(0.000000,256.000000) scale(0.100000,-0.100000)"
fill="#000000" stroke="none">
<path d="M1130 2045 c-292 -62 -510 -263 -602 -555 -30 -97 -33 -297 -5 -400
40 -152 142 -312 263 -412 70 -58 213 -131 304 -155 103 -27 304 -24 400 6
267 83 458 274 541 541 34 106 34 299 1 414 -45 155 -136 297 -258 398 -68 57
-212 131 -299 154 -83 22 -264 27 -345 9z m336 -25 c87 -23 176 -62 243 -107
111 -77 232 -227 279 -348 64 -163 69 -371 15 -528 -44 -126 -85 -189 -193
-297 -78 -79 -110 -103 -180 -138 -120 -59 -219 -82 -350 -82 -359 0 -659 235
-745 585 -25 101 -23 267 4 368 71 268 281 476 551 546 105 28 270 28 376 1z"/>
<path d="M1730 1590 c0 -5 12 -10 26 -10 14 0 23 4 19 10 -3 6 -15 10 -26 10
-10 0 -19 -4 -19 -10z"/>
<path d="M1577 1553 l-28 -4 7 -72 c4 -40 9 -75 11 -80 5 -9 101 2 126 15 29
15 50 55 43 83 -15 58 -56 73 -159 58z m131 -31 c17 -22 15 -67 -3 -86 -9 -8
-32 -18 -53 -21 -20 -3 -44 -8 -53 -9 -19 -4 -29 30 -29 95 0 36 1 38 38 41
51 5 85 -1 100 -20z"/>
<path d="M1526 1475 c6 -68 6 -69 -12 -54 -11 8 -44 36 -75 62 -31 26 -59 47
-63 47 -10 0 4 -143 16 -155 8 -9 2 91 -8 123 -5 18 11 8 82 -55 34 -29 66
-53 72 -53 13 0 5 115 -10 140 -5 9 -6 -12 -2 -55z"/>
<path d="M1263 1508 c-4 -7 -19 -42 -33 -78 -29 -74 -58 -90 -78 -45 -10 22
-9 28 9 46 19 19 19 23 6 42 -13 19 -23 22 -83 20 -37 -2 -70 -6 -74 -10 -3
-5 -1 -42 4 -83 8 -58 11 -67 14 -39 3 35 5 37 45 42 39 6 44 4 73 -30 27 -32
33 -34 52 -24 12 6 22 18 22 25 0 29 123 38 134 10 4 -9 9 -14 13 -11 5 5 -85
147 -93 147 -2 0 -6 -6 -11 -12z m54 -90 c-17 -11 -77 -10 -77 2 0 5 7 25 17
44 l16 35 28 -37 c19 -26 24 -39 16 -44z m-163 50 c17 -27 -11 -46 -74 -50
l-55 -3 -3 32 c-3 31 -2 32 40 36 65 6 80 4 92 -15z"/>
<path d="M844 1470 c-42 -17 -65 -71 -48 -115 9 -22 57 -45 94 -45 34 0 90 25
90 40 0 5 -16 0 -35 -12 -87 -51 -193 35 -122 99 31 28 65 34 104 18 38 -16
46 -4 8 13 -30 14 -61 14 -91 2z"/>
<path d="M880 1399 c-23 -5 -11 -6 39 -3 48 4 71 2 67 -5 -8 -12 3 -61 13 -61
4 0 5 18 3 40 -4 40 -4 40 -46 39 -22 -1 -57 -5 -76 -10z"/>
<path d="M1721 1288 c-11 -18 -25 -40 -30 -48 -9 -12 -17 -8 -51 25 -22 21
-40 34 -40 28 0 -6 18 -26 40 -43 33 -26 40 -38 40 -66 0 -19 5 -34 11 -34 7
0 8 11 4 30 -5 24 0 41 25 81 18 27 30 52 27 55 -2 3 -14 -10 -26 -28z"/>
<path d="M1495 1291 c-49 -6 -50 -7 -53 -41 -1 -19 1 -55 6 -80 l7 -44 45 3
c25 1 61 6 80 11 26 7 15 8 -42 4 l-78 -5 0 29 c0 33 17 42 82 42 20 0 40 5
43 10 7 12 -11 12 -78 1 -45 -7 -48 -6 -53 16 -4 13 -4 26 -1 29 3 3 33 8 66
11 34 3 64 10 67 14 6 10 -11 9 -91 0z"/>
<path d="M1316 1200 c2 -41 8 -78 12 -82 9 -9 112 2 112 11 0 3 -25 4 -55 3
l-55 -4 -1 44 c-1 23 -5 57 -10 73 -6 20 -7 5 -3 -45z"/>
<path d="M1184 1200 c3 -30 6 -65 6 -77 0 -21 5 -23 48 -23 26 0 54 5 62 10
11 7 -1 10 -40 8 l-55 -3 -7 64 c-4 35 -10 66 -14 70 -4 3 -4 -19 0 -49z"/>
<path d="M1059 1213 c-42 -109 -48 -127 -43 -132 2 -3 7 4 10 16 8 30 108 42
137 16 25 -22 19 -9 -36 70 -22 31 -44 57 -49 57 -5 0 -13 -12 -19 -27z m55
-33 l26 -40 -27 0 c-16 0 -38 -3 -50 -6 l-23 -6 17 46 c10 25 20 46 24 46 3 0
18 -18 33 -40z"/>
<path d="M946 1155 c-16 -41 -30 -75 -31 -75 -1 0 -22 29 -46 65 -24 36 -48
65 -52 65 -5 0 15 -34 44 -75 28 -41 53 -75 56 -75 2 0 11 16 19 35 39 94 53
135 46 135 -4 0 -20 -34 -36 -75z"/>
</g>
</svg>
